<svg width="256" height="256" viewBox="0 0 256 256" fill="none" xmlns="http://www.w3.org/2000/svg">
  <defs>
    <linearGradient id="neonStroke" x1="46" y1="42" x2="216" y2="212" gradientUnits="userSpaceOnUse">
      <stop stop-color="#53E6FF"/>
      <stop offset="0.52" stop-color="#8AA7FF"/>
      <stop offset="1" stop-color="#FF7DDB"/>
    </linearGradient>
    <linearGradient id="neonFill" x1="72" y1="78" x2="196" y2="190" gradientUnits="userSpaceOnUse">
      <stop stop-color="#10253D"/>
      <stop offset="1" stop-color="#251431"/>
    </linearGradient>
    <filter id="outerGlow" x="0" y="0" width="256" height="256" filterUnits="userSpaceOnUse" color-interpolation-filters="sRGB">
      <feGaussianBlur stdDeviation="10" result="blur1"/>
      <feColorMatrix in="blur1" type="matrix" values="1 0 0 0 0  0 1 0 0 0.45  0 0 1 0 0.95  0 0 0 1 0" result="glow1"/>
      <feGaussianBlur in="SourceGraphic" stdDeviation="3.5" result="blur2"/>
      <feColorMatrix in="blur2" type="matrix" values="1 0 0 0 0.32  0 1 0 0 0.15  0 0 1 0 0.82  0 0 0 1 0" result="glow2"/>
      <feMerge>
        <feMergeNode in="glow1"/>
        <feMergeNode in="glow2"/>
        <feMergeNode in="SourceGraphic"/>
      </feMerge>
    </filter>
    <filter id="innerGlow" x="44" y="40" width="168" height="176" filterUnits="userSpaceOnUse" color-interpolation-filters="sRGB">
      <feGaussianBlur stdDeviation="4" result="blur"/>
      <feComposite in="blur" in2="SourceAlpha" operator="in" result="inner"/>
      <feColorMatrix in="inner" type="matrix" values="1 0 0 0 0.45  0 1 0 0 0.75  0 0 1 0 1  0 0 0 0.8 0"/>
    </filter>
  </defs>

  <g filter="url(#outerGlow)">
    <path d="M126.88 58.22C145.54 38.86 177.06 36.06 198.42 54.08C219.78 72.11 222.59 105.55 205.01 126.73L132.44 201.83C130.05 204.31 126.11 204.33 123.69 201.88L52.66 129.88C34.79 111.76 34.78 81.87 52.63 63.74C70.47 45.61 100.36 45.14 118.76 62.68L124.84 68.48L126.88 58.22Z" fill="url(#neonFill)"/>
    <path d="M126.88 58.22C145.54 38.86 177.06 36.06 198.42 54.08C219.78 72.11 222.59 105.55 205.01 126.73L132.44 201.83C130.05 204.31 126.11 204.33 123.69 201.88L52.66 129.88C34.79 111.76 34.78 81.87 52.63 63.74C70.47 45.61 100.36 45.14 118.76 62.68" stroke="url(#neonStroke)" stroke-width="10.5" stroke-linecap="round" stroke-linejoin="round"/>
    <path d="M80 103.5C94.07 88.72 106.95 84.86 118.62 91.93C125.28 95.97 124.93 103.2 117.56 113.6L109.87 124.45C106.9 128.64 109.9 134.42 115.02 134.42H126.85C130.53 134.42 133.62 131.68 134.05 128.03L135.4 116.43C135.83 112.78 138.91 110.04 142.59 110.04H145.33C149.03 110.04 152.13 112.81 152.54 116.48L154.04 129.77C154.45 133.44 157.55 136.21 161.25 136.21H163.39C167.08 136.21 170.17 138.95 170.6 142.61L171.07 146.68" stroke="url(#neonStroke)" stroke-width="11" stroke-linecap="round" stroke-linejoin="round"/>
    <path d="M80 103.5C94.07 88.72 106.95 84.86 118.62 91.93C125.28 95.97 124.93 103.2 117.56 113.6" stroke="#B7F4FF" stroke-opacity="0.9" stroke-width="4.5" stroke-linecap="round"/>
    <path d="M143.02 109.96L163.53 130.27" stroke="#FFD0FF" stroke-opacity="0.86" stroke-width="4.5" stroke-linecap="round"/>
    <path d="M136.18 121.73L156.69 142.03" stroke="#FFD0FF" stroke-opacity="0.8" stroke-width="4.5" stroke-linecap="round"/>
    <path d="M128.44 132.63L148.95 152.94" stroke="#FFD0FF" stroke-opacity="0.74" stroke-width="4.5" stroke-linecap="round"/>
  </g>

  <g filter="url(#innerGlow)">
    <path d="M126.88 58.22C145.54 38.86 177.06 36.06 198.42 54.08C219.78 72.11 222.59 105.55 205.01 126.73L132.44 201.83C130.05 204.31 126.11 204.33 123.69 201.88L52.66 129.88C34.79 111.76 34.78 81.87 52.63 63.74C70.47 45.61 100.36 45.14 118.76 62.68" stroke="#D9FBFF" stroke-opacity="0.38" stroke-width="2.8" stroke-linecap="round" stroke-linejoin="round"/>
  </g>
</svg>
